<?xml version="1.0" encoding="iso-8859-1"?>
<!-- Generator: Adobe Illustrator 19.0.0, SVG Export Plug-In . SVG Version: 6.00 Build 0)  -->
<svg version="1.1" id="Layer_1" xmlns="http://www.w3.org/2000/svg" xmlns:xlink="http://www.w3.org/1999/xlink" x="0px" y="0px"
	 viewBox="0 0 231.313 231.313" style="enable-background:new 0 0 231.313 231.313;" xml:space="preserve">
<g>
	<path style="fill:#FF1D25;" d="M181.715,64.307c46.889,29.472,41.939,96.39,8.113,135.212
		c-34.422,39.418-107.436,43.405-144.058,5.088c-18.425-19.296-20.946-45.697-23.742-70.998
		c-3.621-31.993-8.709-67.469-6.004-100.286C14.602,20.49,16.114,6.831,28.902,1.468C44.852-5.27,57.136,12.56,54.111,26.952
		c3.346,25.576,2.979,51.747,3.85,77.415c1.146,35.063,2.017,81.723,47.347,86.261c32.268,3.208,70.173-14.438,72.327-50.418
		c2.2-36.668-35.522-50.693-64.856-59.127c-0.688-0.046-1.421-0.229-2.108-0.596c-0.046,0-0.092-0.046-0.092-0.046
		c-0.688-0.183-1.421-0.413-2.063-0.596c-2.017-0.55-3.163-1.879-3.621-3.438c-9.213-8.892-7.746-23.513,5.684-30.022
		C130.059,36.944,165.077,53.857,181.715,64.307z"/>
</g>
<g>
</g>
<g>
</g>
<g>
</g>
<g>
</g>
<g>
</g>
<g>
</g>
<g>
</g>
<g>
</g>
<g>
</g>
<g>
</g>
<g>
</g>
<g>
</g>
<g>
</g>
<g>
</g>
<g>
</g>
</svg>
